<?xml version="1.0" standalone="no"?>
<!DOCTYPE svg PUBLIC "-//W3C//DTD SVG 20010904//EN"
 "http://www.w3.org/TR/2001/REC-SVG-20010904/DTD/svg10.dtd">
<svg version="1.0" xmlns="http://www.w3.org/2000/svg"
 width="512.000000pt" height="511.000000pt" viewBox="0 0 512.000000 511.000000"
 preserveAspectRatio="xMidYMid meet">

<g transform="translate(0.000000,511.000000) scale(0.100000,-0.100000)"
fill="#000000" stroke="none">
<path d="M2414 4802 c-71 -25 -149 -77 -189 -126 -41 -51 -2181 -3753 -2206
-3819 -27 -69 -26 -227 2 -302 44 -118 149 -219 266 -255 64 -20 88 -20 2263
-20 2175 0 2199 0 2263 20 207 64 337 299 283 510 -13 51 -104 216 -438 795
-232 401 -434 751 -450 776 -45 75 -117 88 -169 33 -51 -54 -58 -38 411 -849
238 -412 440 -770 447 -795 34 -109 -25 -229 -134 -275 -53 -22 -4373 -22
-4426 0 -109 46 -168 166 -134 275 18 59 2140 3735 2181 3778 47 51 96 72 166
72 70 0 119 -21 166 -72 17 -18 228 -375 469 -793 273 -475 450 -773 472 -794
31 -29 40 -33 72 -27 53 8 95 58 88 103 -4 20 -200 370 -459 820 -496 861
-497 862 -622 924 -63 30 -79 34 -170 37 -78 2 -113 -2 -152 -16z"/>
<path d="M2448 3325 c-103 -38 -185 -131 -207 -235 -9 -40 -11 -193 -9 -550
l3 -495 26 -56 c55 -117 160 -184 289 -184 129 0 234 67 289 184 l26 56 3 495
c2 357 0 510 -9 550 -23 106 -105 198 -210 235 -51 18 -152 18 -201 0z m157
-201 c66 -31 66 -28 63 -568 l-3 -486 -33 -32 c-28 -28 -39 -33 -82 -33 -43 0
-54 5 -82 33 l-33 32 -3 486 c-3 538 -3 536 61 568 41 20 71 20 112 0z"/>
<path d="M3869 2721 c-62 -62 -21 -161 67 -161 89 0 131 100 67 164 -37 38
-95 36 -134 -3z"/>
<path d="M2453 1542 c-109 -39 -178 -112 -210 -221 -41 -144 35 -304 176 -370
45 -21 71 -26 131 -26 129 0 234 67 289 184 54 115 27 264 -64 356 -82 81
-219 114 -322 77z m165 -208 c32 -21 55 -79 48 -119 -4 -17 -20 -45 -37 -61
-25 -24 -39 -29 -79 -29 -40 0 -54 5 -79 29 -40 39 -49 84 -25 133 33 67 109
88 172 47z"/>
</g>
</svg>
