<?xml version="1.0" standalone="no"?>
<!DOCTYPE svg PUBLIC "-//W3C//DTD SVG 20010904//EN"
 "http://www.w3.org/TR/2001/REC-SVG-20010904/DTD/svg10.dtd">
<svg version="1.0" xmlns="http://www.w3.org/2000/svg"
 width="512.000000pt" height="512.000000pt" viewBox="0 0 512.000000 512.000000"
 preserveAspectRatio="xMidYMid meet">

<g transform="translate(0.000000,512.000000) scale(0.100000,-0.100000)"
fill="#000000" stroke="none">
<path d="M3254 5110 c-136 -25 -271 -85 -378 -167 -78 -60 -78 -65 -21 -123
27 -27 53 -50 58 -50 5 0 37 21 70 46 126 95 246 134 406 134 156 0 275 -41
404 -139 l65 -49 57 58 56 57 -38 34 c-141 127 -319 197 -518 204 -60 2 -133
0 -161 -5z"/>
<path d="M632 4924 c-29 -14 -64 -40 -77 -58 -56 -73 -55 -67 -55 -574 l0
-468 28 -55 c31 -63 95 -115 150 -124 64 -11 62 -8 62 -97 0 -105 14 -154 54
-194 45 -45 89 -54 279 -54 l167 0 0 -574 0 -573 -75 -6 c-55 -4 -88 -13 -126
-33 -90 -49 -128 -120 -129 -240 l0 -71 -52 9 c-29 6 -136 8 -238 6 -183 -3
-186 -4 -239 -33 -29 -16 -64 -43 -77 -60 -56 -74 -54 -45 -54 -817 0 -696 1
-714 21 -758 25 -55 62 -95 114 -123 38 -21 53 -22 275 -22 222 0 237 1 275
22 43 23 81 59 111 108 16 24 20 55 24 195 l5 165 1485 0 1485 0 5 -165 c4
-140 8 -171 24 -195 30 -49 68 -85 111 -108 38 -21 53 -22 275 -22 222 0 237
1 275 22 52 28 89 68 114 123 20 44 21 62 21 758 0 772 2 743 -54 817 -13 17
-48 44 -77 60 -53 29 -56 30 -239 33 -102 2 -209 0 -237 -6 l-53 -9 0 71 c-1
171 -91 263 -265 274 l-83 5 -32 126 c-17 69 -35 143 -41 164 l-10 37 -74 0
-75 0 0 410 0 409 158 3 157 3 41 160 40 160 52 3 52 3 0 85 0 84 -330 0 -330
0 0 165 0 165 -85 0 -85 0 0 -165 0 -165 -330 0 -331 0 3 -82 3 -83 50 -3 51
-3 40 -162 40 -162 157 -3 157 -3 0 -409 0 -410 -74 0 -74 0 -11 -47 c-7 -27
-17 -66 -23 -88 l-10 -40 -44 88 -44 87 -565 0 -565 0 0 410 0 410 168 0 c183
0 226 7 273 47 47 40 59 79 59 187 l0 96 28 6 c68 15 98 29 138 66 79 73 79
70 79 593 0 421 -2 464 -18 507 -22 56 -92 123 -146 138 -23 6 -329 10 -832
10 l-795 0 -52 -26z m438 -299 l0 -165 -205 0 -205 0 0 136 0 136 29 29 29 29
176 0 176 0 0 -165z m1199 150 c16 -8 31 -22 35 -30 3 -9 6 -214 6 -456 l0
-440 -25 -24 -24 -25 -471 0 -470 0 0 80 0 80 -80 0 -80 0 0 -80 0 -80 -85 0
-85 0 0 80 0 80 -80 0 -80 0 0 -80 0 -80 -57 0 c-107 1 -113 15 -113 279 l0
209 228 4 c254 3 267 7 319 75 l28 36 3 194 4 193 499 0 c419 0 505 -2 528
-15z m-209 -1225 l0 -80 -575 0 -575 0 0 80 0 80 575 0 575 0 0 -80z m1778 0
l-20 -80 -432 0 -432 0 -17 73 c-10 39 -17 75 -17 80 0 4 211 7 469 7 l469 0
-20 -80z m-2268 -955 c0 -748 0 -751 -45 -769 -35 -13 -72 -6 -96 20 l-24 26
-3 714 -2 714 85 0 85 0 0 -705z m1900 295 l0 -410 -85 0 -85 0 0 410 0 410
85 0 85 0 0 -410z m-670 -660 l40 -80 -555 0 -555 0 0 80 0 80 515 0 515 0 40
-80z m872 5 c9 -38 18 -73 18 -77 0 -5 -138 -8 -306 -8 -286 0 -305 1 -300 18
3 9 10 37 16 62 6 25 13 53 16 63 5 16 24 17 272 15 l266 -3 18 -70z m-2430
-335 c4 -65 10 -87 34 -127 99 -160 320 -159 422 1 21 33 27 57 30 124 l5 82
1132 0 1132 0 24 -26 24 -26 3 -469 3 -470 -57 3 -57 3 -67 175 c-37 96 -79
208 -94 248 l-28 72 -1188 0 -1188 0 -28 -72 c-15 -40 -57 -152 -94 -248 l-67
-175 -57 -3 -57 -3 3 470 3 469 24 26 c21 22 33 26 81 26 l57 0 5 -80z m-371
-263 c26 -20 39 -53 39 -101 l0 -45 -82 -3 -83 -3 -3 -82 -3 -83 86 0 85 0 0
-80 0 -79 -82 -3 -83 -3 -3 -82 -3 -83 86 0 85 0 0 -80 0 -79 -82 -3 -83 -3
-3 -82 -3 -83 86 0 85 0 0 -80 0 -79 -82 -3 -83 -3 -3 -83 -3 -82 86 0 85 0 0
-45 c0 -51 -20 -99 -45 -109 -27 -10 -395 -7 -415 4 -22 12 -40 61 -40 111 l0
39 85 0 86 0 -3 83 -3 82 -82 3 -83 3 0 79 0 80 85 0 86 0 -3 83 -3 82 -82 3
-83 3 0 79 0 80 85 0 85 0 0 85 0 85 -85 0 -85 0 0 80 0 80 85 0 85 0 0 85 0
85 -86 0 -86 0 4 55 c3 40 11 62 28 80 l23 25 196 0 c138 -1 201 -4 212 -13z
m3809 -12 c17 -18 25 -40 28 -80 l4 -55 -86 0 -86 0 0 -85 0 -85 85 0 85 0 0
-80 0 -80 -85 0 -85 0 0 -85 0 -85 85 0 85 0 0 -80 0 -79 -82 -3 -83 -3 -3
-82 -3 -83 86 0 85 0 0 -80 0 -79 -82 -3 -83 -3 -3 -83 -3 -82 86 0 85 0 0
-39 c0 -50 -18 -99 -40 -111 -20 -11 -388 -14 -415 -4 -25 10 -45 58 -45 109
l0 45 85 0 86 0 -3 83 -3 82 -82 3 -83 3 0 79 0 80 85 0 86 0 -3 83 -3 82 -82
3 -83 3 0 79 0 80 85 0 86 0 -3 83 -3 82 -82 3 -83 3 0 79 0 80 85 0 86 0 -3
83 -3 82 -82 3 -83 3 0 45 c0 48 13 81 39 101 11 9 74 12 212 13 l196 0 23
-25z m-2950 -470 l0 -165 -186 0 c-173 0 -186 1 -179 18 4 9 32 83 62 165 l56
147 124 0 123 0 0 -165z m330 0 l0 -165 -80 0 -80 0 0 165 0 165 80 0 80 0 0
-165z m580 0 l0 -165 -205 0 -205 0 0 165 0 165 205 0 205 0 0 -165z m330 0
l0 -165 -80 0 -80 0 0 165 0 165 80 0 80 0 0 -165z m330 0 l0 -165 -80 0 -80
0 0 165 0 165 80 0 80 0 0 -165z m393 18 c30 -82 58 -156 62 -165 7 -17 -4
-18 -139 -18 l-146 0 0 165 0 165 83 0 84 0 56 -147z m355 -430 l3 -83 -1491
0 -1490 0 0 78 c0 43 3 82 7 85 3 4 673 6 1487 5 l1481 -3 3 -82z"/>
<path d="M1667 4700 c-114 -20 -231 -102 -292 -205 -14 -25 -33 -79 -42 -120
-58 -288 194 -540 482 -482 264 54 402 334 287 581 -75 159 -261 256 -435 226z
m168 -184 c153 -72 192 -257 81 -383 -52 -59 -104 -83 -181 -83 -141 0 -245
104 -245 245 0 77 24 129 83 181 77 68 172 83 262 40z"/>
<path d="M1650 4295 l0 -85 85 0 86 0 -3 83 -3 82 -82 3 -83 3 0 -86z"/>
<path d="M2890 1735 l0 -86 83 3 82 3 0 80 0 80 -82 3 -83 3 0 -86z"/>
<path d="M3220 1735 l0 -85 85 0 86 0 -3 83 -3 82 -82 3 -83 3 0 -86z"/>
<path d="M3550 1735 l0 -85 85 0 86 0 -3 83 -3 82 -82 3 -83 3 0 -86z"/>
<path d="M3315 4784 c-86 -13 -216 -75 -260 -124 -19 -21 -19 -21 37 -76 l55
-56 54 34 c30 19 73 40 95 46 92 27 207 7 284 -49 l43 -31 55 55 c50 50 54 57
41 73 -25 31 -129 93 -183 108 -57 17 -173 27 -221 20z"/>
<path d="M3302 4378 l3 -83 83 -3 82 -3 0 86 0 85 -85 0 -86 0 3 -82z"/>
</g>
</svg>
