<?xml version="1.0" standalone="no"?>
<!DOCTYPE svg PUBLIC "-//W3C//DTD SVG 20010904//EN"
 "http://www.w3.org/TR/2001/REC-SVG-20010904/DTD/svg10.dtd">
<svg version="1.0" xmlns="http://www.w3.org/2000/svg"
 width="512.000000pt" height="512.000000pt" viewBox="0 0 512.000000 512.000000"
 preserveAspectRatio="xMidYMid meet">

<g transform="translate(0.000000,512.000000) scale(0.100000,-0.100000)"
fill="#000000" stroke="none">
<path d="M2915 5109 c-388 -41 -757 -196 -1067 -448 -48 -39 -92 -71 -96 -71
-5 0 -15 7 -23 16 -34 41 -182 94 -261 94 -25 0 -45 13 -94 60 -98 94 -260
160 -394 160 -206 0 -425 -137 -514 -322 -20 -41 -39 -90 -42 -109 -9 -43 -21
-59 -48 -59 -58 -1 -166 -78 -213 -153 -35 -55 -56 -149 -48 -212 16 -131 111
-248 232 -285 61 -19 93 -20 469 -20 222 0 404 -3 404 -6 0 -3 -11 -44 -25
-92 -106 -370 -96 -800 27 -1167 44 -133 122 -304 187 -409 41 -66 42 -69 24
-88 -10 -12 -315 -305 -678 -653 -473 -454 -669 -648 -692 -687 -90 -149 -80
-345 25 -483 135 -177 381 -226 570 -112 39 23 233 219 687 692 348 363 641
668 653 678 19 18 22 17 88 -24 292 -179 681 -289 1030 -289 277 0 595 68 814
173 l65 32 440 5 c435 5 441 5 492 29 66 29 143 111 169 176 25 67 25 173 0
240 -25 65 -104 147 -166 174 -42 18 -52 28 -73 75 l-25 54 72 144 c283 560
287 1209 12 1773 -369 754 -1172 1201 -2001 1114z m393 -200 c531 -58 1010
-347 1305 -787 75 -111 178 -320 216 -437 147 -455 113 -939 -96 -1360 -25
-49 -48 -93 -52 -97 -4 -4 -30 1 -59 12 -29 11 -67 20 -85 20 -57 0 -62 12
-31 61 75 119 150 321 186 501 32 162 32 434 0 595 -130 651 -625 1146 -1275
1275 -147 29 -422 32 -567 5 -176 -32 -443 -128 -496 -178 -65 -61 -21 -169
69 -169 13 0 62 17 108 39 103 47 217 84 335 108 133 26 395 24 531 -5 286
-62 499 -178 708 -387 209 -209 325 -421 387 -708 31 -147 31 -409 0 -554 -28
-131 -72 -255 -129 -365 l-45 -87 -57 28 c-144 73 -301 86 -446 37 -188 -64
-332 -216 -379 -398 -12 -49 -15 -52 -58 -63 -103 -26 -191 -104 -228 -202
-11 -30 -20 -59 -20 -65 0 -14 -157 -4 -272 18 -497 94 -919 469 -1071 950
-47 149 -61 246 -61 424 0 230 34 392 125 589 22 46 39 98 39 115 -1 84 -110
125 -169 62 -50 -53 -146 -320 -178 -496 -24 -131 -24 -420 0 -545 136 -703
677 -1218 1375 -1310 62 -8 142 -15 177 -15 62 0 64 -1 85 -35 29 -47 104
-112 147 -126 58 -19 24 -29 -123 -35 -953 -42 -1769 658 -1873 1608 -37 333
23 666 173 973 111 225 251 411 429 566 380 331 884 492 1375 438z m-2184
-220 c58 -21 119 -73 199 -169 l27 -33 73 6 c54 4 84 2 121 -11 75 -26 78 -40
24 -103 -65 -76 -168 -233 -220 -334 l-43 -85 -438 0 c-351 0 -444 3 -471 14
-68 29 -103 121 -69 185 29 55 61 73 149 81 67 7 81 11 101 34 13 15 23 40 23
56 0 174 128 337 297 380 56 14 160 5 227 -21z m3011 -2430 c61 -23 132 -82
176 -145 34 -50 70 -64 137 -54 74 12 128 -6 182 -59 41 -39 50 -55 60 -105
15 -74 52 -116 102 -116 65 0 128 -62 128 -125 0 -39 -27 -83 -63 -105 -31
-19 -55 -20 -727 -20 -774 0 -743 -3 -784 68 -59 103 16 212 146 212 88 0 112
26 128 141 14 96 38 148 101 214 109 116 263 151 414 94z m-2354 -622 l71 -64
-123 -127 -123 -127 -143 143 -144 143 127 124 127 123 69 -75 c38 -42 100
-105 139 -140z m-360 -512 c-27 -27 -225 -234 -440 -460 -216 -226 -411 -421
-434 -435 -34 -20 -55 -25 -113 -25 -61 0 -77 4 -120 30 -30 19 -60 49 -79 79
-26 43 -30 59 -30 120 0 58 5 79 25 113 14 23 230 238 485 482 l460 441 147
-148 148 -147 -49 -50z"/>
<path d="M2011 4266 c-89 -49 -49 -186 54 -186 36 0 95 59 95 94 0 80 -80 130
-149 92z"/>
<path d="M2571 3206 c-87 -48 -50 -186 49 -186 51 0 100 49 100 99 0 75 -83
124 -149 87z"/>
<path d="M3071 3206 c-87 -48 -50 -186 49 -186 51 0 100 49 100 99 0 75 -83
124 -149 87z"/>
<path d="M3571 3206 c-87 -48 -50 -186 49 -186 51 0 100 49 100 99 0 75 -83
124 -149 87z"/>
</g>
</svg>
