<?xml version="1.0" standalone="no"?>
<!DOCTYPE svg PUBLIC "-//W3C//DTD SVG 20010904//EN"
 "http://www.w3.org/TR/2001/REC-SVG-20010904/DTD/svg10.dtd">
<svg version="1.0" xmlns="http://www.w3.org/2000/svg"
 width="512.000000pt" height="512.000000pt" viewBox="0 0 512.000000 512.000000"
 preserveAspectRatio="xMidYMid meet">

<g transform="translate(0.000000,512.000000) scale(0.100000,-0.100000)"
fill="#000000" stroke="none">
<path d="M1455 4786 c-67 -29 -105 -105 -90 -183 6 -34 117 -149 1008 -1040
l1002 -1003 -1002 -1002 c-1089 -1090 -1026 -1021 -1008 -1115 9 -49 69 -109
118 -118 95 -18 18 -88 1189 1083 959 960 1077 1081 1083 1115 18 95 87 18
-1073 1181 -625 625 -1080 1074 -1099 1082 -40 17 -89 17 -128 0z"/>
</g>
</svg>
