<?xml version="1.0" standalone="no"?>
<!DOCTYPE svg PUBLIC "-//W3C//DTD SVG 20010904//EN"
 "http://www.w3.org/TR/2001/REC-SVG-20010904/DTD/svg10.dtd">
<svg version="1.0" xmlns="http://www.w3.org/2000/svg"
 width="512.000000pt" height="512.000000pt" viewBox="0 0 512.000000 512.000000"
 preserveAspectRatio="xMidYMid meet">

<g transform="translate(0.000000,512.000000) scale(0.100000,-0.100000)"
fill="#000000" stroke="none">
<path d="M2483 5059 c-87 -43 -265 -214 -383 -369 -217 -284 -342 -540 -514
-1048 -57 -169 -107 -315 -111 -324 -4 -10 -35 -33 -68 -50 -34 -18 -88 -57
-120 -87 -73 -68 -684 -758 -754 -853 -165 -222 -246 -446 -247 -683 -1 -96 2
-116 23 -158 29 -60 77 -92 155 -106 38 -7 254 -11 581 -11 l522 0 16 -59 c33
-117 86 -151 248 -159 l107 -5 4 -84 c3 -62 9 -90 24 -111 29 -40 117 -80 230
-105 89 -19 127 -22 379 -21 252 0 289 2 373 22 111 25 187 64 210 107 12 22
17 52 16 111 l-1 81 66 7 c36 3 92 6 124 6 37 0 70 6 87 16 37 22 76 84 90
145 l12 49 541 0 c332 0 556 4 578 10 56 16 100 50 134 104 26 43 30 60 33
136 7 158 -40 337 -135 522 -66 127 -155 248 -312 423 -64 72 -178 202 -252
290 -174 204 -334 360 -421 410 -37 22 -70 46 -74 54 -3 9 -34 99 -69 201 -74
217 -207 562 -267 693 -128 276 -311 535 -518 730 -140 132 -217 161 -307 116z
m164 -197 c147 -127 359 -395 442 -559 27 -54 27 -56 -7 -39 -36 19 -163 51
-267 67 -44 8 -160 13 -260 13 -193 0 -290 -13 -451 -60 -48 -13 -89 -22 -92
-20 -11 11 142 240 259 386 109 137 254 270 295 270 7 0 44 -26 81 -58z m138
-687 c78 -14 201 -46 309 -82 l108 -35 38 -82 c70 -150 218 -573 279 -796 91
-336 104 -704 40 -1090 -17 -100 -122 -553 -170 -732 l-10 -38 -103 0 -103 0
-6 153 c-23 525 -178 1007 -379 1182 -176 153 -373 120 -531 -88 -173 -227
-286 -634 -304 -1094 l-6 -153 -106 0 -107 0 -77 318 c-42 174 -86 369 -96
432 -31 180 -45 396 -37 575 13 328 53 502 226 985 155 430 144 401 166 421
28 24 244 92 379 119 124 26 360 28 490 5z m1239 -1435 c277 -309 400 -451
457 -530 55 -74 119 -199 148 -285 l30 -90 -491 -3 c-270 -1 -492 -1 -493 0
-2 2 13 91 31 198 40 223 54 465 43 690 -7 122 -30 304 -46 355 -5 18 -4 19
12 5 10 -8 149 -161 309 -340z m-2634 179 c-25 -191 -27 -517 -5 -694 13 -109
48 -317 62 -372 l5 -23 -495 0 -495 0 14 58 c21 82 105 244 174 336 32 44 200
240 372 435 338 384 376 426 383 419 3 -2 -4 -74 -15 -159z m1272 -365 c45
-32 133 -159 177 -257 72 -161 128 -382 156 -622 19 -156 32 -639 18 -648 -5
-3 -56 -16 -114 -28 -90 -19 -135 -22 -339 -23 -233 0 -297 6 -409 40 l-51 15
0 215 c0 705 189 1290 435 1344 39 8 79 -3 127 -36z m-1155 -953 c7 -35 12
-65 11 -67 -2 -1 -236 -4 -520 -6 l-517 -3 -22 22 c-15 14 -23 38 -27 72 l-5
51 534 -2 533 -3 13 -64z m3174 14 c-4 -72 -25 -90 -104 -90 -698 1 -976 6
-972 18 2 6 9 38 15 70 l11 57 527 -2 526 -3 -3 -50z"/>
<path d="M2475 3918 c-136 -26 -260 -124 -324 -257 -35 -73 -36 -80 -36 -187
0 -107 1 -112 37 -185 86 -174 284 -281 463 -250 156 27 291 128 358 268 30
64 32 75 32 178 0 105 -2 114 -34 179 -59 120 -178 215 -316 251 -66 17 -105
17 -180 3z m227 -185 c159 -90 194 -326 67 -452 -144 -144 -399 -101 -480 82
-71 160 27 348 206 398 59 16 150 4 207 -28z"/>
<path d="M2065 605 c-34 -33 -32 -71 8 -147 85 -163 222 -301 392 -394 55 -30
73 -36 106 -31 72 9 194 92 315 212 93 93 117 123 152 194 49 97 52 132 17
166 -49 50 -101 25 -144 -68 -55 -121 -155 -231 -277 -306 -28 -17 -63 -31
-76 -31 -29 0 -120 57 -191 121 -58 51 -127 145 -160 220 -39 88 -94 113 -142
64z"/>
</g>
</svg>
